{"title":"The Hobbit - An Unexpected Journey (2012) 720p MKV x264 AC3 BRri","uid":8207799,"size":4098979151,"categoryP":"video","categoryS":"hd___movies","magnet":"?xt=urn:btih:a505bfe363a8ae8fd909463a862f1d40f31bdd78&amp;dn=The+Hobbit+-+An+Unexpected+Journey+%282012%29+720p+MKV+x264+AC3+BRri&amp;tr=udp%3A%2F%2Ftracker.openbittorrent.com%3A80&amp;tr=udp%3A%2F%2Fopen.demonii.com%3A1337&amp;tr=udp%3A%2F%2Ftracker.coppersurfer.tk%3A6969&amp;tr=udp%3A%2F%2Fexodus.desync.com%3A6969","seeders":1,"leechers":1,"uploader":"Pioneer47","files":-1,"time":1362165300,"description":"A band of wandering dwarves shows up one or two at a time. The goal? To hire poor Bilbo for a quest that entails defeating a dragon and recovering a treasure. Along the way there are adventures with trolls and elves and The Battle of Five Armies. But most importantly of all he acquires a peculiar ring that has had and will have a great impact on the future of their world.\n\nStarring: Martin Freeman, Richard Armitage, Rob Kazinsky, Aidan Turner, Graham McTavish, John Callen, Stephen Hunter, Mark Hadlow, Peter Hambleton\nDirector: Peter Jackson\n\n &lt;a href=&quot;\nhttp://stpicz.com/2317_vlcsnap_2013_03_01_16h10m30s61_4e09.png&quot; rel=&quot;nofollow&quot; target=&quot;_NEW&quot;&gt;\nhttp://stpicz.com/2317_vlcsnap_2013_03_01_16h10m30s61_4e09.png&lt;/a&gt; &lt;a href=&quot;\nhttp://stpicz.com/0772_vlcsnap_2013_03_01_16h11m31s167_lvoj.png&quot; rel=&quot;nofollow&quot; target=&quot;_NEW&quot;&gt;\nhttp://stpicz.com/0772_vlcsnap_2013_03_01_16h11m31s167_lvoj.png&lt;/a&gt; &lt;a href=&quot;\nhttp://stpicz.com/1218_vlcsnap_2013_03_01_16h10m21s246_apg5.png&quot; rel=&quot;nofollow&quot; target=&quot;_NEW&quot;&gt;\nhttp://stpicz.com/1218_vlcsnap_2013_03_01_16h10m21s246_apg5.png&lt;/a&gt; &lt;a href=&quot;\nhttp://stpicz.com/3937_vlcsnap_2013_03_01_16h17m12s20_0euf.png&quot; rel=&quot;nofollow&quot; target=&quot;_NEW&quot;&gt;\nhttp://stpicz.com/3937_vlcsnap_2013_03_01_16h17m12s20_0euf.png&lt;/a&gt; &lt;a href=&quot;\nhttp://stpicz.com/2020_vlcsnap_2013_03_01_16h10m11s145_q3uy.png&quot; rel=&quot;nofollow&quot; target=&quot;_NEW&quot;&gt;\nhttp://stpicz.com/2020_vlcsnap_2013_03_01_16h10m11s145_q3uy.png&lt;/a&gt; &lt;a href=&quot;\nhttp://stpicz.com/0834_vlcsnap_2013_03_01_16h15m40s103_f0sv.png&quot; rel=&quot;nofollow&quot; target=&quot;_NEW&quot;&gt;\nhttp://stpicz.com/0834_vlcsnap_2013_03_01_16h15m40s103_f0sv.png&lt;/a&gt; &lt;a href=&quot;\nhttp://stpicz.com/3845_vlcsnap_2013_03_01_16h16m44s228_prfa.png&quot; rel=&quot;nofollow&quot; target=&quot;_NEW&quot;&gt;\nhttp://stpicz.com/3845_vlcsnap_2013_03_01_16h16m44s228_prfa.png&lt;/a&gt; &lt;a href=&quot;\nhttp://stpicz.com/3619_vlcsnap_2013_03_01_16h17m07s202_s8k8.png&quot; rel=&quot;nofollow&quot; target=&quot;_NEW&quot;&gt;\nhttp://stpicz.com/3619_vlcsnap_2013_03_01_16h17m07s202_s8k8.png&lt;/a&gt; &lt;a href=&quot;\nhttp://stpicz.com/7668_vlcsnap_2013_03_01_16h15m22s184_2on8.png&quot; rel=&quot;nofollow&quot; target=&quot;_NEW&quot;&gt;\nhttp://stpicz.com/7668_vlcsnap_2013_03_01_16h15m22s184_2on8.png&lt;/a&gt; &lt;a href=&quot;\nhttp://stpicz.com/6912_vlcsnap_2013_03_01_16h13m32s229_x7fx.png&quot; rel=&quot;nofollow&quot; target=&quot;_NEW&quot;&gt;\nhttp://stpicz.com/6912_vlcsnap_2013_03_01_16h13m32s229_x7fx.png&lt;/a&gt;\n[http://stpicz.com/9668_vlcsnap_2013_03_01_16h13m43s205_a0ff.png\n\nGeneral\nUnique ID: 176102693907576798397771754227492779828 (0x847C252871D3B5FC9F6FF0578C70F734)\nComplete name: D:The Hobbit - An Unexpected Journey (2012) 720p MKV x264 AC3 BRrip [Pioneer].mkv\nFormat: Matroska\nFormat version: Version 4 / Version 2\nFile size: 3.82 GiB\nDuration: 2h 49mn\nOverall bit rate: 3 222 Kbps\nEncoded date: UTC 2013-02-28 21:36:13\nWriting application: mkvmerge v6.0.0 ('Coming Up For Air') built on Jan 20 2013 09:52:00\nWriting library: libebml v1.3.0 + libmatroska v1.4.0\n\nVideo\nID: 1\nFormat: AVC\nFormat/Info: Advanced Video Codec\nFormat profile: &lt;a class=&quot;__cf_email__&quot; href=&quot;/cdn-cgi/l/email-protection&quot; data-cfemail=&quot;6820010f0028245b4659&quot;&gt;[email&amp;#160;protected]&lt;/a&gt;&lt;script cf-hash='f9e31' type=&quot;text/javascript&quot;&gt;\n/* &lt;![CDATA[ */!function(){try{var t=&quot;currentScript&quot;in document?document.currentScript:function(){for(var t=document.getElementsByTagName(&quot;script&quot;),e=t.length;e--;)if(t[e].getAttribute(&quot;cf-hash&quot;))return t[e]}();if(t&amp;&amp;t.previousSibling){var e,r,n,i,c=t.previousSibling,a=c.getAttribute(&quot;data-cfemail&quot;);if(a){for(e=&quot;&quot;,r=parseInt(a.substr(0,2),16),n=2;a.length-n;n+=2)i=parseInt(a.substr(n,2),16)^r,e+=String.fromCharCode(i);e=document.createTextNode(e),c.parentNode.replaceChild(e,c)}}}catch(u){}}();/* ]]&gt; */&lt;/script&gt;\nFormat settings, CABAC: Yes\nFormat settings, ReFrames: 5 frames\nCodec ID: V_MPEG4/ISO/AVC\nDuration: 2h 49mn\nBit rate: 2 966 Kbps\nWidth: 1 280 pixels\nHeight: 528 pixels\nDisplay aspect ratio: 2.40:1\nOriginal display aspect ratio: 2.40:1\nFrame rate mode: Constant\nFrame rate: 23.976 fps\nColor space: YUV\nChroma subsampling: 4:2:0\nBit depth: 8 bits\nScan type: Progressive\nBits/(Pixel*Frame): 0.183\nStream size: 3.51 GiB (92%)\nWriting library: x264 core 120\nLanguage: English\nDefault: Yes\nForced: No\nColor primaries: BT.709\nTransfer characteristics: BT.709\nMatrix coefficients: BT.709\n\nAudio\nID: 2\nFormat: AC-3\nFormat/Info: Audio Coding 3\nMode extension: CM (complete main)\nFormat settings, Endianness: Big\nCodec ID: A_AC3\nDuration: 2h 49mn\nBit rate mode: Constant\nBit rate: 192 Kbps\nChannel(s): 6 channels\nChannel positions: Front: L C R, Side: L R, LFE\nSampling rate: 48.0 KHz\nBit depth: 16 bits\nCompression mode: Lossy\nStream size: 233 MiB (6%)\nLanguage: English\nDefault: Yes\nForced: No\n","torrent":{"xt":"urn:btih:a505bfe363a8ae8fd909463a862f1d40f31bdd78","amp;dn":"The+Hobbit+-+An+Unexpected+Journey+%282012%29+720p+MKV+x264+AC3+BRri","amp;tr":["udp%3A%2F%2Ftracker.openbittorrent.com%3A80","udp%3A%2F%2Fopen.demonii.com%3A1337","udp%3A%2F%2Ftracker.coppersurfer.tk%3A6969","udp%3A%2F%2Fexodus.desync.com%3A6969"],"infoHash":"a505bfe363a8ae8fd909463a862f1d40f31bdd78","infoHashBuffer":{"type":"Buffer","data":[165,5,191,227,99,168,174,143,217,9,70,58,134,47,29,64,243,27,221,120]},"announce":[],"urlList":[]}}